<svg width="288" height="22" viewBox="0 0 288 22" fill="none" xmlns="http://www.w3.org/2000/svg">
<path d="M8.39775 20.648C7.64575 20.648 6.98975 20.592 6.42975 20.48C5.86975 20.384 5.40575 20.216 5.03775 19.976C4.66975 19.736 4.39775 19.408 4.22175 18.992C4.04575 18.592 3.95775 18.08 3.95775 17.456C3.95775 17.024 3.96575 16.616 3.98175 16.232C4.01375 15.832 4.03775 15.448 4.05375 15.08C4.08575 14.712 4.10975 14.344 4.12575 13.976C4.15775 13.608 4.17375 13.224 4.17375 12.824C4.17375 12.584 4.12575 12.36 4.02975 12.152C3.93375 11.928 3.75775 11.728 3.50175 11.552C3.24575 11.376 2.88575 11.232 2.42175 11.12C1.97375 11.008 1.39775 10.952 0.693751 10.952V9.704C1.39775 9.704 1.97375 9.648 2.42175 9.536C2.88575 9.424 3.24575 9.28 3.50175 9.104C3.75775 8.928 3.93375 8.736 4.02975 8.528C4.12575 8.304 4.17375 8.072 4.17375 7.832C4.17375 7.064 4.13375 6.312 4.05375 5.576C3.98975 4.824 3.95775 4.032 3.95775 3.2C3.95775 2.576 4.04575 2.064 4.22175 1.664C4.39775 1.248 4.66975 0.92 5.03775 0.68C5.40575 0.439999 5.86975 0.271999 6.42975 0.175999C6.98975 0.0639997 7.64575 0.0079999 8.39775 0.0079999H9.86175V1.136H8.61375C8.00575 1.136 7.50175 1.176 7.10175 1.256C6.71775 1.336 6.41375 1.464 6.18975 1.64C5.98175 1.816 5.83775 2.048 5.75775 2.336C5.67775 2.608 5.63775 2.936 5.63775 3.32C5.63775 4.008 5.66175 4.72 5.70975 5.456C5.75775 6.176 5.78175 6.912 5.78175 7.664C5.78175 8.448 5.62175 9.048 5.30175 9.464C4.99775 9.864 4.42975 10.136 3.59775 10.28V10.376C4.42975 10.52 4.99775 10.8 5.30175 11.216C5.62175 11.616 5.78175 12.208 5.78175 12.992C5.78175 13.808 5.75775 14.552 5.70975 15.224C5.66175 15.896 5.63775 16.6 5.63775 17.336C5.63775 17.72 5.67775 18.048 5.75775 18.32C5.83775 18.608 5.98175 18.84 6.18975 19.016C6.41375 19.192 6.71775 19.32 7.10175 19.4C7.50175 19.48 8.00575 19.52 8.61375 19.52H9.86175V20.648H8.39775ZM32.979 17.288C32.435 17.288 31.923 17.208 31.443 17.048C30.963 16.904 30.539 16.696 30.171 16.424C29.819 16.136 29.539 15.792 29.331 15.392C29.123 14.976 29.019 14.504 29.019 13.976C29.019 13.32 29.171 12.752 29.475 12.272C29.795 11.776 30.291 11.352 30.963 11C31.651 10.648 32.531 10.36 33.603 10.136C34.675 9.912 35.963 9.736 37.467 9.608C37.451 9.208 37.387 8.832 37.275 8.48C37.163 8.128 36.987 7.824 36.747 7.568C36.507 7.296 36.187 7.08 35.787 6.92C35.403 6.76 34.931 6.68 34.371 6.68C33.603 6.68 32.867 6.832 32.163 7.136C31.459 7.424 30.835 7.736 30.291 8.072L29.523 6.728C29.811 6.536 30.147 6.344 30.531 6.152C30.931 5.944 31.347 5.76 31.779 5.6C32.227 5.44 32.699 5.312 33.195 5.216C33.691 5.104 34.195 5.048 34.707 5.048C36.307 5.048 37.491 5.488 38.259 6.368C39.043 7.232 39.435 8.392 39.435 9.848V17H37.827L37.659 15.416H37.587C36.931 15.928 36.203 16.368 35.403 16.736C34.619 17.104 33.811 17.288 32.979 17.288ZM33.507 15.704C34.179 15.704 34.835 15.56 35.475 15.272C36.131 14.968 36.795 14.536 37.467 13.976V10.904C36.219 11 35.171 11.136 34.323 11.312C33.491 11.488 32.819 11.704 32.307 11.96C31.811 12.2 31.459 12.48 31.251 12.8C31.043 13.104 30.939 13.448 30.939 13.832C30.939 14.168 31.011 14.456 31.155 14.696C31.299 14.92 31.483 15.112 31.707 15.272C31.947 15.416 32.219 15.528 32.523 15.608C32.843 15.672 33.171 15.704 33.507 15.704ZM43.9376 21.92V5.336H45.5696L45.7376 6.824H45.8096C46.3536 6.312 46.9776 5.888 47.6816 5.552C48.4016 5.216 49.1216 5.048 49.8416 5.048C50.6256 5.048 51.3136 5.192 51.9056 5.48C52.5136 5.752 53.0176 6.152 53.4176 6.68C53.8336 7.192 54.1456 7.816 54.3536 8.552C54.5616 9.272 54.6656 10.088 54.6656 11C54.6656 11.992 54.5216 12.88 54.2336 13.664C53.9456 14.432 53.5536 15.088 53.0576 15.632C52.5776 16.176 52.0176 16.592 51.3776 16.88C50.7376 17.152 50.0656 17.288 49.3616 17.288C48.8176 17.288 48.2256 17.16 47.5856 16.904C46.9616 16.632 46.3936 16.256 45.8816 15.776H45.8096L45.9056 17.984V21.92H43.9376ZM49.0256 15.632C50.0816 15.632 50.9456 15.224 51.6176 14.408C52.2896 13.592 52.6256 12.456 52.6256 11C52.6256 10.36 52.5616 9.776 52.4336 9.248C52.3056 8.72 52.1056 8.272 51.8336 7.904C51.5776 7.52 51.2416 7.224 50.8256 7.016C50.4096 6.808 49.9136 6.704 49.3376 6.704C48.8256 6.704 48.2736 6.848 47.6816 7.136C47.1056 7.408 46.5136 7.848 45.9056 8.456V14.264C46.4656 14.76 47.0256 15.112 47.5856 15.32C48.1456 15.528 48.6256 15.632 49.0256 15.632ZM58.5683 21.92V5.336H60.2003L60.3683 6.824H60.4403C60.9843 6.312 61.6083 5.888 62.3123 5.552C63.0323 5.216 63.7523 5.048 64.4723 5.048C65.2563 5.048 65.9443 5.192 66.5363 5.48C67.1443 5.752 67.6483 6.152 68.0483 6.68C68.4643 7.192 68.7763 7.816 68.9843 8.552C69.1923 9.272 69.2963 10.088 69.2963 11C69.2963 11.992 69.1523 12.88 68.8643 13.664C68.5763 14.432 68.1843 15.088 67.6883 15.632C67.2083 16.176 66.6483 16.592 66.0083 16.88C65.3683 17.152 64.6963 17.288 63.9923 17.288C63.4483 17.288 62.8563 17.16 62.2163 16.904C61.5923 16.632 61.0243 16.256 60.5123 15.776H60.4403L60.5363 17.984V21.92H58.5683ZM63.6563 15.632C64.7123 15.632 65.5763 15.224 66.2483 14.408C66.9203 13.592 67.2563 12.456 67.2563 11C67.2563 10.36 67.1923 9.776 67.0643 9.248C66.9363 8.72 66.7363 8.272 66.4643 7.904C66.2083 7.52 65.8723 7.224 65.4563 7.016C65.0403 6.808 64.5443 6.704 63.9683 6.704C63.4563 6.704 62.9043 6.848 62.3123 7.136C61.7363 7.408 61.1443 7.848 60.5363 8.456V14.264C61.0963 14.76 61.6563 15.112 62.2163 15.32C62.7763 15.528 63.2563 15.632 63.6563 15.632ZM78.8869 17.288C78.0069 17.288 77.1829 17.152 76.4149 16.88C75.6629 16.608 74.9989 16.208 74.4229 15.68C73.8629 15.152 73.4149 14.512 73.0789 13.76C72.7589 12.992 72.5989 12.12 72.5989 11.144C72.5989 10.2 72.7589 9.352 73.0789 8.6C73.4149 7.848 73.8549 7.208 74.3989 6.68C74.9589 6.152 75.5909 5.752 76.2949 5.48C77.0149 5.192 77.7669 5.048 78.5509 5.048C79.3829 5.048 80.1269 5.184 80.7829 5.456C81.4549 5.712 82.0149 6.08 82.4629 6.56C82.9269 7.04 83.2789 7.616 83.5189 8.288C83.7589 8.96 83.8789 9.704 83.8789 10.52C83.8789 10.744 83.8709 10.96 83.8549 11.168C83.8389 11.376 83.8149 11.56 83.7829 11.72H74.5909C74.7189 13.048 75.1989 14.048 76.0309 14.72C76.8789 15.376 77.9109 15.704 79.1269 15.704C79.8309 15.704 80.4629 15.608 81.0229 15.416C81.5989 15.208 82.1509 14.936 82.6789 14.6L83.3989 15.896C82.8229 16.28 82.1589 16.608 81.4069 16.88C80.6709 17.152 79.8309 17.288 78.8869 17.288ZM78.5989 6.608C78.1189 6.608 77.6549 6.688 77.2069 6.848C76.7749 7.008 76.3829 7.24 76.0309 7.544C75.6789 7.832 75.3829 8.2 75.1429 8.648C74.9029 9.096 74.7349 9.608 74.6389 10.184H82.0789C81.9989 8.984 81.6469 8.088 81.0229 7.496C80.4149 6.904 79.6069 6.608 78.5989 6.608ZM91.5015 17.288C90.9575 17.288 90.4455 17.208 89.9655 17.048C89.4855 16.904 89.0615 16.696 88.6935 16.424C88.3415 16.136 88.0615 15.792 87.8535 15.392C87.6455 14.976 87.5415 14.504 87.5415 13.976C87.5415 13.32 87.6935 12.752 87.9975 12.272C88.3175 11.776 88.8135 11.352 89.4855 11C90.1735 10.648 91.0535 10.36 92.1255 10.136C93.1975 9.912 94.4855 9.736 95.9895 9.608C95.9735 9.208 95.9095 8.832 95.7975 8.48C95.6855 8.128 95.5095 7.824 95.2695 7.568C95.0295 7.296 94.7095 7.08 94.3095 6.92C93.9255 6.76 93.4535 6.68 92.8935 6.68C92.1255 6.68 91.3895 6.832 90.6855 7.136C89.9815 7.424 89.3575 7.736 88.8135 8.072L88.0455 6.728C88.3335 6.536 88.6695 6.344 89.0535 6.152C89.4535 5.944 89.8695 5.76 90.3015 5.6C90.7495 5.44 91.2215 5.312 91.7175 5.216C92.2135 5.104 92.7175 5.048 93.2295 5.048C94.8295 5.048 96.0135 5.488 96.7815 6.368C97.5655 7.232 97.9575 8.392 97.9575 9.848V17H96.3495L96.1815 15.416H96.1095C95.4535 15.928 94.7255 16.368 93.9255 16.736C93.1415 17.104 92.3335 17.288 91.5015 17.288ZM92.0295 15.704C92.7015 15.704 93.3575 15.56 93.9975 15.272C94.6535 14.968 95.3175 14.536 95.9895 13.976V10.904C94.7415 11 93.6935 11.136 92.8455 11.312C92.0135 11.488 91.3415 11.704 90.8295 11.96C90.3335 12.2 89.9815 12.48 89.7735 12.8C89.5655 13.104 89.4615 13.448 89.4615 13.832C89.4615 14.168 89.5335 14.456 89.6775 14.696C89.8215 14.92 90.0055 15.112 90.2295 15.272C90.4695 15.416 90.7415 15.528 91.0455 15.608C91.3655 15.672 91.6935 15.704 92.0295 15.704ZM103.732 17V5.336H105.364L105.532 8.096H105.604C106.212 7.152 106.956 6.408 107.836 5.864C108.732 5.32 109.724 5.048 110.812 5.048C111.244 5.048 111.644 5.088 112.012 5.168C112.38 5.232 112.748 5.352 113.116 5.528L112.66 7.232C112.244 7.088 111.892 6.984 111.604 6.92C111.332 6.856 110.964 6.824 110.5 6.824C109.62 6.824 108.772 7.08 107.956 7.592C107.156 8.088 106.404 8.944 105.7 10.16V17H103.732ZM120.763 17.288C120.219 17.288 119.707 17.208 119.227 17.048C118.747 16.904 118.323 16.696 117.955 16.424C117.603 16.136 117.323 15.792 117.115 15.392C116.907 14.976 116.803 14.504 116.803 13.976C116.803 13.32 116.955 12.752 117.259 12.272C117.579 11.776 118.075 11.352 118.747 11C119.435 10.648 120.315 10.36 121.387 10.136C122.459 9.912 123.747 9.736 125.251 9.608C125.235 9.208 125.171 8.832 125.059 8.48C124.947 8.128 124.771 7.824 124.531 7.568C124.291 7.296 123.971 7.08 123.571 6.92C123.187 6.76 122.715 6.68 122.155 6.68C121.387 6.68 120.651 6.832 119.947 7.136C119.243 7.424 118.619 7.736 118.075 8.072L117.307 6.728C117.595 6.536 117.931 6.344 118.315 6.152C118.715 5.944 119.131 5.76 119.563 5.6C120.011 5.44 120.483 5.312 120.979 5.216C121.475 5.104 121.979 5.048 122.491 5.048C124.091 5.048 125.275 5.488 126.043 6.368C126.827 7.232 127.219 8.392 127.219 9.848V17H125.611L125.443 15.416H125.371C124.715 15.928 123.987 16.368 123.187 16.736C122.403 17.104 121.595 17.288 120.763 17.288ZM121.291 15.704C121.963 15.704 122.619 15.56 123.259 15.272C123.915 14.968 124.579 14.536 125.251 13.976V10.904C124.003 11 122.955 11.136 122.107 11.312C121.275 11.488 120.603 11.704 120.091 11.96C119.595 12.2 119.243 12.48 119.035 12.8C118.827 13.104 118.723 13.448 118.723 13.832C118.723 14.168 118.795 14.456 118.939 14.696C119.083 14.92 119.267 15.112 119.491 15.272C119.731 15.416 120.003 15.528 120.307 15.608C120.627 15.672 120.955 15.704 121.291 15.704ZM131.721 17V5.336H133.353L133.521 7.328H133.617C134.225 6.672 134.881 6.128 135.585 5.696C136.289 5.264 137.097 5.048 138.009 5.048C139.401 5.048 140.417 5.448 141.057 6.248C141.713 7.032 142.041 8.2 142.041 9.752V17H140.073V10.016C140.073 8.912 139.865 8.096 139.449 7.568C139.033 7.024 138.345 6.752 137.385 6.752C137.033 6.752 136.705 6.8 136.401 6.896C136.113 6.976 135.825 7.104 135.537 7.28C135.249 7.456 134.953 7.68 134.649 7.952C134.345 8.208 134.025 8.512 133.689 8.864V17H131.721ZM152.424 17.288C151.512 17.288 150.664 17.152 149.88 16.88C149.112 16.608 148.44 16.216 147.864 15.704C147.288 15.176 146.84 14.536 146.52 13.784C146.2 13.016 146.04 12.152 146.04 11.192C146.04 10.216 146.208 9.352 146.544 8.6C146.896 7.832 147.368 7.184 147.96 6.656C148.552 6.128 149.24 5.728 150.024 5.456C150.824 5.184 151.664 5.048 152.544 5.048C153.504 5.048 154.328 5.216 155.016 5.552C155.72 5.888 156.312 6.288 156.792 6.752L155.808 8.024C155.328 7.608 154.824 7.28 154.296 7.04C153.784 6.8 153.224 6.68 152.616 6.68C151.944 6.68 151.328 6.792 150.768 7.016C150.208 7.224 149.728 7.528 149.328 7.928C148.944 8.328 148.64 8.808 148.416 9.368C148.192 9.912 148.08 10.52 148.08 11.192C148.08 11.864 148.184 12.472 148.392 13.016C148.616 13.56 148.92 14.032 149.304 14.432C149.704 14.816 150.176 15.12 150.72 15.344C151.28 15.552 151.896 15.656 152.568 15.656C153.288 15.656 153.944 15.52 154.536 15.248C155.144 14.96 155.688 14.608 156.168 14.192L157.056 15.464C156.4 16.04 155.68 16.488 154.896 16.808C154.112 17.128 153.288 17.288 152.424 17.288ZM166.671 17.288C165.791 17.288 164.967 17.152 164.199 16.88C163.447 16.608 162.783 16.208 162.207 15.68C161.647 15.152 161.199 14.512 160.863 13.76C160.543 12.992 160.383 12.12 160.383 11.144C160.383 10.2 160.543 9.352 160.863 8.6C161.199 7.848 161.639 7.208 162.183 6.68C162.743 6.152 163.375 5.752 164.079 5.48C164.799 5.192 165.551 5.048 166.335 5.048C167.167 5.048 167.911 5.184 168.567 5.456C169.239 5.712 169.799 6.08 170.247 6.56C170.711 7.04 171.063 7.616 171.303 8.288C171.543 8.96 171.663 9.704 171.663 10.52C171.663 10.744 171.655 10.96 171.639 11.168C171.623 11.376 171.599 11.56 171.567 11.72H162.375C162.503 13.048 162.983 14.048 163.815 14.72C164.663 15.376 165.695 15.704 166.911 15.704C167.615 15.704 168.247 15.608 168.807 15.416C169.383 15.208 169.935 14.936 170.463 14.6L171.183 15.896C170.607 16.28 169.943 16.608 169.191 16.88C168.455 17.152 167.615 17.288 166.671 17.288ZM166.383 6.608C165.903 6.608 165.439 6.688 164.991 6.848C164.559 7.008 164.167 7.24 163.815 7.544C163.463 7.832 163.167 8.2 162.927 8.648C162.687 9.096 162.519 9.608 162.423 10.184H169.863C169.783 8.984 169.431 8.088 168.807 7.496C168.199 6.904 167.391 6.608 166.383 6.608ZM180.581 8.696C180.037 8.696 179.573 8.512 179.189 8.144C178.821 7.776 178.637 7.288 178.637 6.68C178.637 6.072 178.821 5.584 179.189 5.216C179.573 4.832 180.037 4.64 180.581 4.64C181.125 4.64 181.581 4.832 181.949 5.216C182.333 5.584 182.525 6.072 182.525 6.68C182.525 7.288 182.333 7.776 181.949 8.144C181.581 8.512 181.125 8.696 180.581 8.696ZM180.581 17.288C180.037 17.288 179.573 17.104 179.189 16.736C178.821 16.368 178.637 15.88 178.637 15.272C178.637 14.664 178.821 14.176 179.189 13.808C179.573 13.424 180.037 13.232 180.581 13.232C181.125 13.232 181.581 13.424 181.949 13.808C182.333 14.176 182.525 14.664 182.525 15.272C182.525 15.88 182.333 16.368 181.949 16.736C181.581 17.104 181.125 17.288 180.581 17.288ZM204.875 17V5.336H206.507L206.675 7.328H206.771C207.379 6.672 208.035 6.128 208.739 5.696C209.443 5.264 210.251 5.048 211.163 5.048C212.555 5.048 213.571 5.448 214.211 6.248C214.867 7.032 215.195 8.2 215.195 9.752V17H213.227V10.016C213.227 8.912 213.019 8.096 212.603 7.568C212.187 7.024 211.499 6.752 210.539 6.752C210.187 6.752 209.859 6.8 209.555 6.896C209.267 6.976 208.979 7.104 208.691 7.28C208.403 7.456 208.107 7.68 207.803 7.952C207.499 8.208 207.179 8.512 206.843 8.864V17H204.875ZM224.473 17.288C223.705 17.288 222.969 17.152 222.265 16.88C221.577 16.608 220.969 16.216 220.441 15.704C219.913 15.176 219.489 14.536 219.169 13.784C218.865 13.016 218.713 12.152 218.713 11.192C218.713 10.216 218.865 9.352 219.169 8.6C219.489 7.832 219.913 7.184 220.441 6.656C220.969 6.128 221.577 5.728 222.265 5.456C222.969 5.184 223.705 5.048 224.473 5.048C225.241 5.048 225.969 5.184 226.657 5.456C227.361 5.728 227.977 6.128 228.505 6.656C229.033 7.184 229.449 7.832 229.753 8.6C230.073 9.352 230.233 10.216 230.233 11.192C230.233 12.152 230.073 13.016 229.753 13.784C229.449 14.536 229.033 15.176 228.505 15.704C227.977 16.216 227.361 16.608 226.657 16.88C225.969 17.152 225.241 17.288 224.473 17.288ZM224.473 15.656C225.033 15.656 225.537 15.552 225.985 15.344C226.449 15.12 226.841 14.816 227.161 14.432C227.497 14.032 227.753 13.56 227.929 13.016C228.105 12.472 228.193 11.864 228.193 11.192C228.193 10.52 228.105 9.912 227.929 9.368C227.753 8.808 227.497 8.328 227.161 7.928C226.841 7.528 226.449 7.224 225.985 7.016C225.537 6.792 225.033 6.68 224.473 6.68C223.913 6.68 223.401 6.792 222.937 7.016C222.489 7.224 222.097 7.528 221.761 7.928C221.441 8.328 221.193 8.808 221.017 9.368C220.841 9.912 220.753 10.52 220.753 11.192C220.753 11.864 220.841 12.472 221.017 13.016C221.193 13.56 221.441 14.032 221.761 14.432C222.097 14.816 222.489 15.12 222.937 15.344C223.401 15.552 223.913 15.656 224.473 15.656ZM234.136 17V5.336H235.768L235.936 7.328H236.032C236.64 6.672 237.296 6.128 238 5.696C238.704 5.264 239.512 5.048 240.424 5.048C241.816 5.048 242.832 5.448 243.472 6.248C244.128 7.032 244.456 8.2 244.456 9.752V17H242.488V10.016C242.488 8.912 242.28 8.096 241.864 7.568C241.448 7.024 240.76 6.752 239.8 6.752C239.448 6.752 239.12 6.8 238.816 6.896C238.528 6.976 238.24 7.104 237.952 7.28C237.664 7.456 237.368 7.68 237.064 7.952C236.76 8.208 236.44 8.512 236.104 8.864V17H234.136ZM254.454 17.288C253.574 17.288 252.75 17.152 251.982 16.88C251.23 16.608 250.566 16.208 249.99 15.68C249.43 15.152 248.982 14.512 248.646 13.76C248.326 12.992 248.166 12.12 248.166 11.144C248.166 10.2 248.326 9.352 248.646 8.6C248.982 7.848 249.422 7.208 249.966 6.68C250.526 6.152 251.158 5.752 251.862 5.48C252.582 5.192 253.334 5.048 254.118 5.048C254.95 5.048 255.694 5.184 256.35 5.456C257.022 5.712 257.582 6.08 258.03 6.56C258.494 7.04 258.846 7.616 259.086 8.288C259.326 8.96 259.446 9.704 259.446 10.52C259.446 10.744 259.438 10.96 259.422 11.168C259.406 11.376 259.382 11.56 259.35 11.72H250.158C250.286 13.048 250.766 14.048 251.598 14.72C252.446 15.376 253.478 15.704 254.694 15.704C255.398 15.704 256.03 15.608 256.59 15.416C257.166 15.208 257.718 14.936 258.246 14.6L258.966 15.896C258.39 16.28 257.726 16.608 256.974 16.88C256.238 17.152 255.398 17.288 254.454 17.288ZM254.166 6.608C253.686 6.608 253.222 6.688 252.774 6.848C252.342 7.008 251.95 7.24 251.598 7.544C251.246 7.832 250.95 8.2 250.71 8.648C250.47 9.096 250.302 9.608 250.206 10.184H257.646C257.566 8.984 257.214 8.088 256.59 7.496C255.982 6.904 255.174 6.608 254.166 6.608ZM278.172 20.648V19.52H279.396C280.004 19.52 280.5 19.48 280.884 19.4C281.284 19.32 281.596 19.192 281.82 19.016C282.044 18.84 282.196 18.608 282.276 18.32C282.356 18.048 282.396 17.72 282.396 17.336C282.396 16.6 282.372 15.896 282.324 15.224C282.276 14.552 282.252 13.808 282.252 12.992C282.252 12.208 282.404 11.616 282.708 11.216C283.012 10.8 283.58 10.52 284.412 10.376V10.28C283.58 10.136 283.012 9.864 282.708 9.464C282.404 9.048 282.252 8.448 282.252 7.664C282.252 6.912 282.276 6.176 282.324 5.456C282.372 4.72 282.396 4.008 282.396 3.32C282.396 2.936 282.356 2.608 282.276 2.336C282.196 2.048 282.044 1.816 281.82 1.64C281.596 1.464 281.284 1.336 280.884 1.256C280.5 1.176 280.004 1.136 279.396 1.136H278.172V0.0079999H279.636C280.388 0.0079999 281.036 0.0639997 281.58 0.175999C282.14 0.271999 282.604 0.439999 282.972 0.68C283.34 0.92 283.612 1.248 283.788 1.664C283.964 2.064 284.052 2.576 284.052 3.2C284.052 4.032 284.012 4.824 283.932 5.576C283.868 6.312 283.836 7.064 283.836 7.832C283.836 8.072 283.884 8.304 283.98 8.528C284.076 8.736 284.252 8.928 284.508 9.104C284.764 9.28 285.116 9.424 285.564 9.536C286.028 9.648 286.612 9.704 287.316 9.704V10.952C286.612 10.952 286.028 11.008 285.564 11.12C285.116 11.232 284.764 11.376 284.508 11.552C284.252 11.728 284.076 11.928 283.98 12.152C283.884 12.36 283.836 12.584 283.836 12.824C283.836 13.224 283.844 13.608 283.86 13.976C283.892 14.344 283.916 14.712 283.932 15.08C283.964 15.448 283.988 15.832 284.004 16.232C284.036 16.616 284.052 17.024 284.052 17.456C284.052 18.08 283.964 18.592 283.788 18.992C283.612 19.408 283.34 19.736 282.972 19.976C282.604 20.216 282.14 20.384 281.58 20.48C281.036 20.592 280.388 20.648 279.636 20.648H278.172Z" fill="#1D1D1D"/>
</svg>
