<svg width="232" height="232" viewBox="0 0 232 232" fill="none" xmlns="http://www.w3.org/2000/svg">
<rect width="232" height="232" fill="#181818"/>
<path d="M85.2445 140.575C84.7804 140.575 84.1142 140.575 83.8759 140.575C83.3815 140.575 82.8871 140.575 82.3927 140.575H76.5117H62.7801H58.7873C57.3042 140.575 55.5788 140.575 55.2023 140.575C55.0777 140.575 54.5748 140.575 54.1107 140.575H47.9726C47.2976 140.575 46.8546 140.449 46.6437 140.196C46.4327 139.985 46.4064 139.349 46.6595 138.759L65.074 92.691C65.3693 91.9738 65.8755 91.6152 66.5927 91.6152H72.7309C73.2793 91.6152 73.6379 91.6996 73.8066 91.8684C73.9754 91.9949 74.1652 92.2902 74.3761 92.7543L92.6641 138.759C92.9172 139.392 92.9857 140.048 92.7748 140.259C92.6061 140.47 92.1631 140.575 91.4459 140.575H85.2445ZM58.6786 130.176H80.4311L69.6301 103.132L58.6786 130.176Z" fill="white"/>
<path d="M115.889 107.1C114.37 107.1 113.083 106.594 112.029 105.581C110.974 104.527 110.447 103.261 110.447 101.785C110.447 100.308 110.974 99.0425 112.029 97.9878C113.083 96.9332 114.37 96.4058 115.889 96.4058C117.407 96.4058 118.673 96.9332 119.685 97.9878C120.74 99.0425 121.267 100.308 121.267 101.785C121.267 103.261 120.74 104.527 119.685 105.581C118.673 106.594 117.407 107.1 115.889 107.1ZM115.889 135.701C114.37 135.701 113.083 135.195 112.029 134.183C110.974 133.128 110.447 131.862 110.447 130.386C110.447 128.909 110.974 127.644 112.029 126.589C113.083 125.534 114.37 125.007 115.889 125.007C117.407 125.007 118.673 125.534 119.685 126.589C120.74 127.644 121.267 129.101 121.267 130.577C121.267 132.054 120.74 133.128 119.685 134.183C118.673 135.195 117.407 135.701 115.889 135.701Z" fill="white"/>
<path d="M173.092 95.6152C173.092 93.4061 174.883 91.6152 177.092 91.6152H181.333C183.542 91.6152 185.333 93.4061 185.333 95.6152V136.578C185.333 138.787 183.542 140.578 181.333 140.578H177.092C174.883 140.578 173.092 138.787 173.092 136.578V95.6152Z" fill="white"/>
<path d="M138.856 95.6152C138.856 93.4061 140.647 91.6152 142.856 91.6152H147.097C149.306 91.6152 151.097 93.4061 151.097 95.6152V136.578C151.097 138.787 149.306 140.578 147.097 140.578H142.856C140.647 140.578 138.856 138.787 138.856 136.578V95.6152Z" fill="white"/>
</svg>
